<?xml version="1.0" encoding="utf-8"?>
<!-- Generator: Adobe Illustrator 13.0.2, SVG Export Plug-In . SVG Version: 6.00 Build 14948)  -->
<!DOCTYPE svg PUBLIC "-//W3C//DTD SVG 1.1//EN" "http://www.w3.org/Graphics/SVG/1.1/DTD/svg11.dtd">
<svg version="1.1" id="thumbs-up" xmlns="http://www.w3.org/2000/svg" xmlns:xlink="http://www.w3.org/1999/xlink" x="0px" y="0px"
	 width="87.173px" height="107.386px" viewBox="-31.672 -37.488 87.173 107.386"
	 enable-background="new -31.672 -37.488 87.173 107.386" xml:space="preserve">
<g id="thumbs-up_1_" transform="matrix(0.26375465,0,0,0.26375465,-71.523762,-124.22195)">
	<path id="path3052" d="M344.914,733.55c-4.68-1.948-7.672-2.151-12.17-0.815c-9.667,2.873-40.558,4.065-48.57,1.877
		c-11.093-3.032-38.558-22.119-56.752-39.462l-16.465-15.684h-22.023c-15.743,0-22.552-0.644-23.898-2.27
		c-3.865-4.65-10.974-34.071-12.953-53.568c-2.62-25.829,0.011-51.765,7.512-74.265c2.912-8.727,6.094-16.828,7.059-17.994
		c1.174-1.414,10.291-2.318,27.282-2.732l25.514-0.6l7.32-7.09c4.017-3.895,15.784-18.246,26.136-31.883
		c10.363-13.633,29.232-35.844,41.924-49.351c42.435-45.145,37.725-37.514,46.43-75.308c4.165-18.135,7.601-33.569,7.62-34.302
		c0.122-4.347,25.303,3.314,37.233,11.328c10.082,6.777,16.528,15.723,20.164,27.974c6.205,20.875,2.499,38.195-15.925,74.477
		c-12.263,24.126-21.478,53.82-18.024,58.026c1.174,1.425,6.916,2.24,16.217,2.281c38.518,0.159,73.51,13.936,86.391,33.997
		c4.58,7.142,5.946,11.378,6.509,20.083c0.822,13.026-1.407,21.079-9.59,34.663c-5.954,9.882-5.994,10.071-3.373,17.491
		c5.972,16.95,1.133,33.419-11.97,40.687c-9.36,5.202-10.123,6.328-10.152,14.962c-0.059,14.751-10.012,26.418-25.696,30.135
		c-6.276,1.485-7.923,3.654-7.96,10.452c-0.063,12.452-9.712,23.026-24.714,27.069C376.545,736.812,352.485,736.723,344.914,733.55z
		 M300.098,723.609c18.368-0.292,17.783-2.962-2.547-11.567c-12.722-5.383-15.936-7.483-15.936-10.393
		c0-4.358,6.987-15.284,15.503-24.252l6.176-6.494l-7.179-3.658c-3.947-2.018-7.694-4.506-8.323-5.532
		c-1.496-2.41,7.79-16.839,15.865-24.659c3.462-3.354,6.294-6.62,6.294-7.242s-1.999-2.048-4.428-3.151
		c-2.44-1.115-4.428-2.884-4.428-3.928c0-4.065,14.381-22.804,20.312-26.477c6.739-4.158,7.812-6.628,3.595-8.246
		c-4.517-1.737-2.851-8.164,5.002-19.238c17.309-24.429,44.764-31.227,79.005-19.549c7.601,2.599,17.117,4.487,22.571,4.487
		c11.448,0,12.211,2.51,3.173,10.445c-7.79,6.846-13.403,7.027-31.86,1.003c-18.054-5.894-26.651-6.95-36.037-4.417
		c-8.316,2.236-22.793,14.207-20.908,17.28c0.633,1.003,13.448,7.109,28.48,13.555c24.922,10.693,28.413,11.73,39.602,11.73
		c14.929,0,26.777-3.354,34.482-9.76c19.59-16.299,22.622-40.265,6.898-54.475c-12.833-11.596-37.303-17.743-79.719-20.023
		l-23.696-1.285l1.214-16.084c1.618-21.501,9.086-43.46,23.356-68.664c6.257-11.063,12.552-24.037,13.999-28.837
		c5.08-16.88,2.359-30.104-8.527-41.461c-6.605-6.889-18.764-13.635-20.734-11.496c-0.752,0.803-3.925,13.425-7.039,28.036
		c-4.228,19.74-6.827,28.086-10.152,32.484c-2.47,3.251-17.731,20.008-33.93,37.24c-16.206,17.22-37.995,42.575-48.437,56.323
		c-20.664,27.221-30.346,36.759-39.102,38.506c-3.121,0.622-13.914,1.636-23.989,2.259c-11.185,0.685-19.187,2.01-20.582,3.406
		c-1.255,1.255-4.176,9.697-6.498,18.757c-5.733,22.46-5.763,57.463-0.07,78.279c2.099,7.694,4.721,15.062,5.813,16.376
		c1.477,1.781,7.412,2.41,22.634,2.41h20.634l14.129,14.299c16.528,16.728,31.971,29.42,46.23,38.007
		C289.176,722.565,292.871,723.72,300.098,723.609z M365.929,720.055c17.002-0.252,25.655-4.328,29.28-13.788
		c2.732-7.168-0.77-9.086-16.606-9.086c-13.103,0-15.677-0.663-34.463-8.856c-11.156-4.869-21.197-8.856-22.3-8.856
		c-2.703,0-17.202,14.347-17.202,17.028c0,1.166,11.437,6.979,25.425,12.914C351.982,718.718,356.925,720.184,365.929,720.055z
		 M387.278,682.822c24.77-0.352,37.514-4.75,41.479-14.321c3.806-9.197,0.892-10.289-27.502-10.289h-25.162l-21.712-9.741
		c-11.926-5.35-23.082-9.741-24.781-9.741c-3.695,0-17.883,11.781-17.883,14.851c0,1.196,13.877,8.305,30.838,15.806
		C372.827,682.759,373.642,683.011,387.278,682.822z M363.23,634.463l22.289,9.578l19.331-0.152
		c19.82-0.148,34.008-2.581,41.017-7.016c6.176-3.917,9.308-11.811,7.138-18.017c-1.566-4.517-2.418-5.028-6.454-3.936
		c-11.741,3.166-19.953,4.18-34.504,4.251c-15.221,0.078-16.306-0.204-37.684-9.66c-12.107-5.365-23.826-9.741-26.047-9.741
		c-5.109,0-19.779,9.219-22.382,14.077c-1.796,3.354-1.192,4.028,6.516,7.361C337.124,623.237,350.967,629.202,363.23,634.463
		L363.23,634.463z"/>
</g>
</svg>
